<?xml version="1.0" encoding="iso-8859-1"?>
<!-- Generator: Adobe Illustrator 19.0.0, SVG Export Plug-In . SVG Version: 6.00 Build 0)  -->
<svg version="1.1" id="Layer_1" xmlns="http://www.w3.org/2000/svg" xmlns:xlink="http://www.w3.org/1999/xlink" x="0px" y="0px"
	 viewBox="0 0 512 512" style="enable-background:new 0 0 512 512;" xml:space="preserve">
<g>
	<polygon style="fill:#F2F2F2;" points="463.52,238.519 463.52,273.481 424.446,273.481 424.446,312.555 389.484,312.555 
		389.484,273.481 350.423,273.481 350.423,238.519 389.484,238.519 389.484,199.445 424.446,199.445 424.446,238.519 	"/>
	<path style="fill:#F2F2F2;" d="M309.717,232.432c1.453,7.637,2.207,15.52,2.207,23.568c0,9.035-0.946,17.837-2.756,26.338
		c-12.106,57.021-62.752,99.798-123.38,99.798c-48.041,0-89.803-26.845-111.109-66.358C65.097,297.981,59.654,277.635,59.654,256
		c0-69.662,56.473-126.135,126.135-126.135c30.602,0,58.667,10.9,80.507,29.039l-40.857,33.453
		c-11.503-7.184-25.09-11.338-39.65-11.338c-32.877,0-60.819,21.169-70.937,50.619c-2.619,7.637-4.045,15.835-4.045,24.363
		c0,9.255,1.673,18.125,4.757,26.31c10.653,28.435,38.074,48.672,70.225,48.672c13.82,0,26.763-3.729,37.868-10.255
		c14.752-8.651,26.283-22.183,32.356-38.389h-67.455v-49.906h68.428H309.717z"/>
</g>
<path style="fill:#E3513D;" d="M256,10.283c135.705,0,245.717,110.012,245.717,245.717S391.705,501.717,256,501.717
	S10.283,391.705,10.283,256S120.295,10.283,256,10.283z M463.52,273.481v-34.961h-39.075v-39.075h-34.961v39.075h-39.061v34.961
	h39.061v39.075h34.961v-39.075H463.52z M311.925,256c0-8.048-0.754-15.931-2.207-23.568h-52.73h-68.428v49.906h67.455
	c-6.074,16.206-17.604,29.738-32.356,38.389c-11.105,6.526-24.048,10.255-37.868,10.255c-32.151,0-59.572-20.236-70.225-48.672
	c-3.085-8.185-4.757-17.056-4.757-26.31c0-8.528,1.426-16.727,4.045-24.363c10.118-29.45,38.06-50.619,70.937-50.619
	c14.56,0,28.147,4.154,39.65,11.338l40.857-33.453c-21.841-18.139-49.906-29.039-80.507-29.039
	c-69.662,0-126.135,56.473-126.135,126.135c0,21.635,5.443,41.981,15.027,59.777c21.306,39.513,63.068,66.358,111.109,66.358
	c60.627,0,111.273-42.776,123.38-99.798C310.979,273.837,311.925,265.035,311.925,256z"/>
<g>
	<path style="fill:#333333;" d="M309.717,222.149H188.559c-5.679,0-10.283,4.604-10.283,10.283v49.906
		c0,5.679,4.604,10.283,10.283,10.283h50.572c-5.362,7.787-12.419,14.395-20.683,19.241c-9.839,5.782-21.132,8.838-32.658,8.838
		c-26.834,0-51.185-16.877-60.603-42.015c-2.717-7.212-4.097-14.844-4.097-22.684c0-7.202,1.174-14.277,3.485-21.022
		c8.976-26.125,33.577-43.677,61.213-43.677c12.135,0,23.962,3.381,34.203,9.777c3.736,2.335,8.55,2.028,11.961-0.765l40.856-33.453
		c2.376-1.945,3.758-4.849,3.769-7.92c0.011-3.07-1.35-5.985-3.713-7.947c-24.389-20.256-55.313-31.41-87.077-31.41
		c-75.221,0-136.418,61.196-136.418,136.418c0,22.549,5.621,44.906,16.258,64.658c23.867,44.264,69.911,71.76,120.16,71.76
		c31.439,0,62.124-10.955,86.403-30.844c23.94-19.614,40.646-46.995,47.036-77.096c1.977-9.294,2.981-18.875,2.981-28.478
		c0-8.588-0.803-17.164-2.39-25.492C318.895,225.659,314.654,222.149,309.717,222.149z M299.111,280.202
		c-11.275,53.106-58.933,91.651-113.32,91.651c-42.678,0-81.784-23.357-102.056-60.951C74.708,294.141,69.937,275.156,69.937,256
		c0-63.882,51.972-115.853,115.853-115.853c22.741,0,44.973,6.73,63.797,19.148l-25.226,20.655
		c-11.903-6.046-25.097-9.213-38.571-9.213c-36.417,0-68.833,23.132-80.665,57.567c-3.052,8.904-4.6,18.222-4.6,27.698
		c0,10.325,1.823,20.398,5.41,29.917c12.402,33.105,44.494,55.347,79.855,55.347c15.187,0,30.083-4.036,43.07-11.668
		c16.882-9.9,29.945-25.401,36.784-43.651c1.182-3.158,0.743-6.695-1.178-9.467c-1.921-2.771-5.078-4.424-8.451-4.424h-57.172
		v-29.34h102.045c0.502,4.391,0.755,8.835,0.755,13.285C301.642,264.166,300.79,272.307,299.111,280.202z"/>
	<path style="fill:#333333;" d="M256,0C114.841,0,0,114.841,0,256s114.841,256,256,256s256-114.841,256-256S397.159,0,256,0z
		 M256,491.434C126.181,491.434,20.566,385.819,20.566,256S126.181,20.566,256,20.566S491.434,126.181,491.434,256
		S385.819,491.434,256,491.434z"/>
	<path style="fill:#333333;" d="M463.522,228.237H434.73v-28.792c0-5.679-4.603-10.283-10.283-10.283h-34.961
		c-5.68,0-10.283,4.604-10.283,10.283v28.792h-28.778c-5.68,0-10.283,4.604-10.283,10.283v34.961
		c0,5.679,4.603,10.283,10.283,10.283h28.778v28.792c0,5.679,4.603,10.283,10.283,10.283h34.961c5.68,0,10.283-4.604,10.283-10.283
		v-28.792h28.792c5.68,0,10.283-4.604,10.283-10.283v-34.961C473.804,232.84,469.2,228.237,463.522,228.237z M453.239,263.198
		h-28.792c-5.68,0-10.283,4.604-10.283,10.283v28.792h-14.396v-28.792c0-5.679-4.603-10.283-10.283-10.283h-28.778v-14.396h28.778
		c5.68,0,10.283-4.604,10.283-10.283v-28.792h14.396v28.792c0,5.679,4.603,10.283,10.283,10.283h28.792V263.198z"/>
</g>
<g>
</g>
<g>
</g>
<g>
</g>
<g>
</g>
<g>
</g>
<g>
</g>
<g>
</g>
<g>
</g>
<g>
</g>
<g>
</g>
<g>
</g>
<g>
</g>
<g>
</g>
<g>
</g>
<g>
</g>
</svg>
